# xmcd CD database file
#
# Track frame offsets:
#	150
#	17823
#	29160
#	47048
#	71163
#	121471
#	127026
#	155914
#	186909
#	201122
#	235238
#
# Disc length: 3466 seconds
#
# Revision: 0
# Processed by: cddbd v1.4PL0 Copyright (c) Steve Scherf et al.
# Submitted via: CDex 1.50
#
DISCID=a90d880b
DTITLE=Eugene Chadbourne and René Lussier - L'Oasis
DYEAR=2002
DGENRE=Jazz
TTITLE0=Bukdancer's Choice
TTITLE1=I Wish We Could  Do This Live
TTITLE2=Louise Riel
TTITLE3=Steel Guitar Rag
TTITLE4=Scruggs Soufflé!
TTITLE5=Prélude
TTITLE6=Pan Handle Rag
TTITLE7=First Day of Spring
TTITLE8=Our Satanic Majesty's Request
TTITLE9=Alamaba Jubilee
TTITLE10=Les Double Six de Paris Invitent un Grand Oiseau au Jazz Club
EXTD=YEAR: 2002
EXTT0=
EXTT1=
EXTT2=
EXTT3=
EXTT4=
EXTT5=
EXTT6=
EXTT7=
EXTT8=
EXTT9=
EXTT10=
PLAYORDER=
